<svg height="512pt" viewBox="-21 0 512 512" width="512pt" xmlns="http://www.w3.org/2000/svg"><path d="m458.679688 138.667969-106.667969 42.664062-117.332031-170.664062zm0 0" fill="#b2ebf2"/><path d="m458.679688 138.667969v234.664062l-106.667969-192zm0 0" fill="#00bcd4"/><path d="m458.679688 373.332031-224 21.335938 117.332031-213.335938zm0 0" fill="#00acc1"/><path d="m117.34375 181.332031-106.664062 191.789063v-234.453125zm0 0" fill="#00bcd4"/><path d="m234.679688 394.667969v106.664062l-224-128zm0 0" fill="#4dd0e1"/><path d="m458.679688 373.332031-224 128v-106.664062zm0 0" fill="#26c6da"/><path d="m234.679688 10.667969-117.335938 170.664062-106.664062-42.664062zm0 0" fill="#80deea"/><path d="m352.011719 181.332031h-234.667969l117.335938-170.664062zm0 0" fill="#4dd0e1"/><path d="m352.011719 181.332031-117.332031 213.335938-117.335938-213.335938zm0 0" fill="#00bcd4"/><path d="m234.679688 394.667969-224-21.335938v-.210937l106.664062-191.789063zm0 0" fill="#00acc1"/><path d="m234.679688 512c-1.835938 0-3.648438-.46875-5.292969-1.40625l-224-128c-3.328125-1.902344-5.3750002-5.441406-5.3750002-9.261719v-234.664062c0-3.820313 2.0468752-7.359375 5.3750002-9.261719l224-128c3.285156-1.875 7.296875-1.875 10.582031 0l224 128c3.328125 1.902344 5.375 5.441406 5.375 9.261719v234.664062c0 3.820313-2.046875 7.359375-5.375 9.261719l-224 128c-1.644531.9375-3.457031 1.40625-5.289062 1.40625zm-213.335938-144.851562 213.335938 121.898437 213.332031-121.898437v-222.296876l-213.332031-121.898437-213.335938 121.898437zm0 0"/><path d="m234.679688 405.332031c-3.90625 0-7.488282-2.109375-9.34375-5.523437l-117.335938-213.332032c-1.8125-3.308593-1.769531-7.339843.148438-10.5625 1.921874-3.261718 5.421874-5.246093 9.195312-5.246093h234.667969c3.777343 0 7.273437 1.984375 9.195312 5.246093 1.917969 3.242188 1.984375 7.253907.167969 10.5625l-117.332031 213.332032c-1.875 3.414062-5.460938 5.523437-9.363281 5.523437zm-99.285157-213.332031 99.285157 180.523438 99.285156-180.523438zm0 0"/><path d="m352.011719 192c-3.433594 0-6.742188-1.664062-8.789063-4.628906l-108.542968-157.886719-108.546876 157.886719c-2.835937 4.117187-8.125 5.695312-12.757812 3.859375l-106.664062-42.664063c-5.484376-2.199218-8.128907-8.40625-5.929688-13.867187 2.195312-5.460938 8.425781-8.148438 13.84375-5.953125l98.75 39.511718 112.492188-163.628906c4.011718-5.78125 13.589843-5.78125 17.578124 0l112.492188 163.628906 98.75-39.511718c5.460938-2.21875 11.671875.46875 13.847656 5.953125 2.195313 5.460937-.449218 11.667969-5.933594 13.867187l-106.664062 42.664063c-1.257812.511719-2.601562.769531-3.925781.769531zm0 0"/><path d="m234.679688 501.332031c-5.890626 0-10.667969-4.777343-10.667969-10.664062v-96c0-5.890625 4.777343-10.667969 10.667969-10.667969 5.886718 0 10.664062 4.777344 10.664062 10.667969v96c0 5.886719-4.777344 10.664062-10.664062 10.664062zm0 0"/><path d="m235.703125 405.289062-226.050781-21.332031c-3.582032-.339843-6.738282-2.453125-8.425782-5.652343-1.683593-3.179688-1.621093-6.996094.109376-10.15625l106.664062-192c2.902344-5.183594 9.386719-7.019532 14.527344-4.136719 5.144531 2.859375 7 9.34375 4.140625 14.503906l-98.753907 177.75 207.765626 19.796875 205.761718-19.773438-98.773437-177.773437c-2.859375-5.140625-1.003907-11.625 4.136719-14.503906 5.121093-2.839844 11.648437-1.023438 14.53125 4.136719l106.664062 192c1.730469 3.136718 1.792969 6.957031.109375 10.15625-1.664063 3.179687-4.84375 5.3125-8.429687 5.652343zm0 0"/></svg>